PathFileType	4	(X/Y/Z)	RBDS025\RBDS025runT35.trc
DataRate	CameraRate	NumFrames	NumMarkers	Units	OrigDataRate	OrigDataStartFrame	OrigNumFrames
150.000000	150.000000	4	33	mm	150.000000	2812	4500
Frame#	Time	L.ASIS			L.Heel.Bottom			L.Heel.Lateral			L.Heel.Top			L.Iliac.Crest			L.MT1			L.MT5			L.PSIS			L.Shank.Bottom.Lateral			L.Shank.Bottom.Medial			L.Shank.Top.Lateral			L.Shank.Top.Medial			L.Thigh.Bottom.Lateral			L.Thigh.Bottom.Medial			L.Thigh.Top.Lateral			L.Thigh.Top.Medial			R.ASIS			R.ASY			R.Heel.Bottom			R.Heel.Lateral			R.Heel.Top			R.Iliac.Crest			R.MT1			R.MT5			R.PSIS			R.Shank.Bottom.Lateral			R.Shank.Bottom.Medial			R.Shank.Top.Lateral			R.Shank.Top.Medial			R.Thigh.Bottom.Lateral			R.Thigh.Bottom.Medial			R.Thigh.Top.Lateral			R.Thigh.Top.Medial			
		X1	Y1	Z1	X2	Y2	Z2	X3	Y3	Z3	X4	Y4	Z4	X5	Y5	Z5	X6	Y6	Z6	X7	Y7	Z7	X8	Y8	Z8	X9	Y9	Z9	X10	Y10	Z10	X11	Y11	Z11	X12	Y12	Z12	X13	Y13	Z13	X14	Y14	Z14	X15	Y15	Z15	X16	Y16	Z16	X17	Y17	Z17	X18	Y18	Z18	X19	Y19	Z19	X20	Y20	Z20	X21	Y21	Z21	X22	Y22	Z22	X23	Y23	Z23	X24	Y24	Z24	X25	Y25	Z25	X26	Y26	Z26	X27	Y27	Z27	X28	Y28	Z28	X29	Y29	Z29	X30	Y30	Z30	X31	Y31	Z31	X32	Y32	Z32	X33	Y33	Z33	

2813	18.74666666666667	2120.938650355652	933.1963553909059	842.2256256825474	1876.919649928394	232.0648731563703	873.0349679146919	1909.65775954264	229.9633664100523	828.5630019099941	1914.595650451365	257.1243668847673	873.7810400054192	2053.283672994082	1016.99310434052	784.9724353124992	2037.226340189432	93.46669527232142	893.4798664384281	2009.341450502413	116.4775929358859	787.2273272609241	1960.110447677117	1001.604773155378	879.2955475589404	2035.933864084945	292.0070746352348	808.9182339259274	1999.507544614058	324.7650521337863	835.5089460236309	2081.450462445346	357.0872293104493	794.0403818443818	2046.104743459649	389.5844269061809	818.718471221609	2191.675398108422	640.0467656182055	766.9982664478827	2137.507792253912	599.9387769109849	794.5517257109909	2123.810849369369	724.5119409333273	755.6303326239496	2071.62301876942	686.8999226956777	783.2363786214834	2114.093161361553	923.4760341492994	1041.788217871389	1722.750370327898	83.36989658578038	980.1089144637295	1551.115321495382	152.6349180771932	941.5950797758878	1576.641445893739	151.5389769357578	988.1239986368314	1583.082292770327	182.771196811663	949.5671262883712	2070.701406786426	994.9939695090873	1078.049912137351	1728.742960688489	44.16767151753972	929.8081253804877	1679.412249198448	47.35959053091331	1033.754162659609	1963.056612409518	999.2992975138429	982.708462762628	1696.068586226589	242.6684847737921	1025.475918286227	1667.023527770298	270.2619123392449	993.0040776107575	1739.686244952935	312.8053645950814	1044.420681303912	1706.529641657122	338.7860565368603	1011.451617546654	1925.141688689328	578.2275758994599	1082.329502553514	1866.76777015937	594.6355895053282	1044.494787470956	1942.569930502766	685.8805396054452	1100.66773640779	1885.943875665951	700.9173118501076	1065.125413494318	
2814	18.75333333333333	2122.271384787717	937.2571972164717	841.1146997759878	1902.03596026773	210.0113527703156	876.3784240565124	1934.226351696432	210.8078541348501	831.6026977386844	1937.417405817864	238.2967040115287	876.8404586195313	2054.172041516309	1022.517385986519	784.4940791471389	2074.130710521169	85.43059885855575	895.0802094016063	2043.158986462525	106.2281515301924	789.2445919342334	1961.891292297906	1005.563439186485	879.3306402239289	2055.822171248116	282.9850000308454	810.8455217344211	2017.281144153255	312.9511398538235	837.8113762317446	2096.232651190794	351.2624829066975	795.5635848174027	2058.746345272591	381.1019558378833	820.5445952192872	2193.688279382242	644.6754997835858	767.770938143257	2139.474806539119	604.49163769043	795.1200725369581	2125.581573420724	728.9523479040009	755.9013332235943	2073.510567764484	691.3580396291173	783.7127771404241	2115.921975089853	925.0490770701031	1040.557806728094	1705.55499660015	85.9383142727556	982.3890192389429	1538.059022092569	165.5702921063021	944.8196473210103	1563.567926718693	162.2081493737677	991.2681103072372	1571.779973843366	193.6464922492723	953.2632400823508	2074.797623962586	997.5210539637635	1076.850910067409	1709.196234772845	46.5154635959429	931.3695029039764	1660.068507767022	50.93199157225096	1034.999079838201	1965.446543482659	1002.465700646171	982.732977197567	1682.45431024764	250.1122868764271	1028.785144054749	1653.861831358489	277.2540079804285	995.5068689664616	1725.983633301426	320.4756472938515	1047.096443673442	1693.171859875145	345.9826711131331	1013.423138415478	1915.789643507769	585.362978092155	1083.685268245994	1858.42975290445	603.5591028167871	1044.997923697098	1936.867873201124	692.4775933496944	1101.297379243996	1881.392735406434	709.2071133056643	1064.807870400353	
2815	18.76	2123.51838396995	940.8178639727653	840.0188260260868	1928.740009169563	188.5108634168168	879.5561345489289	1960.180329116922	192.1445280373089	834.4930325724918	1961.517461024426	219.8034811504914	879.7371390008276	2054.790417802646	1027.503564501312	784.1551971630039	2111.281695688621	79.09899894799204	896.8706996938574	2077.602198402695	97.32026941932791	791.3773500543459	1963.605832197363	1009.032936151542	879.5030764121483	2076.09472383299	274.152654932577	812.6347957982797	2035.649098405813	301.1860763300513	839.9627129533609	2111.170209996914	345.195975038525	796.8868227842077	2071.737390597205	372.2308903630698	822.1606366787648	2194.840544167206	648.1245670061252	768.5459082302756	2140.45552346144	608.0118111920145	795.6915882258071	2126.775817125114	732.4475451671929	756.3311251889228	2074.69658860406	695.0180164373312	784.3215189052761	2117.739815308988	926.492999001448	1039.397814748687	1688.885203125343	89.18977865549785	984.7165056901562	1525.916549057755	178.6682929725103	948.3355165216159	1551.339023777986	173.1572591983696	994.6575355280681	1561.262131793143	204.6671021338917	957.1627188977418	2078.974401929037	999.8342295173909	1075.72094382259	1690.299619423373	49.62552839774713	933.0985128600075	1641.481664485832	55.22401276620609	1036.385918524594	1967.758842183903	1005.322834257145	982.8627886918407	1669.637775623406	257.6700928971403	1032.06294307454	1641.389945008536	284.3974336670842	998.1441984349811	1713.10191842633	328.2464596321427	1049.750513078721	1680.56352325554	353.3160346267674	1015.482872211192	1907.015011548079	592.5688521147226	1084.745928362531	1850.714651706034	612.4855762552793	1045.233734579758	1931.634858590536	699.0329875267165	1101.771256140525	1877.382302075811	717.3853835060672	1064.316100849165	
2816	18.76666666666667	2124.663219943243	943.8045554078948	839.0018944176207	1956.888490690687	167.8021369223048	882.4786185563634	1987.432236235634	174.1775429719213	837.1567215227744	1986.760218802891	201.8463470786062	882.3738987183641	2055.177194632501	1031.817034593342	783.9684597069063	2148.356446311843	74.67740160320344	898.896179387826	2112.500180110955	89.92844556745507	793.638853063964	1965.2242060976	1011.965379727119	879.783713833723	2096.641336389167	265.6347752555311	814.2526391646829	2054.502025615538	289.6303936440777	841.8930167454529	2126.205881853744	338.9824129074495	797.9777429966985	2085.0264683177	363.0926886658831	823.5026496515258	2195.154652666111	650.3482842746823	769.2834405502336	2140.497034490862	610.4519212622338	796.2630482535787	2127.397046680397	734.9318872952091	756.8717787842191	2075.201941371344	697.8063655881695	785.0240172254817	2119.502959118371	927.8178293873384	1038.371779898827	1672.741569241317	93.20023397617773	987.0797187428827	1514.539383435232	191.8173560904803	952.0549919106251	1539.818061005638	184.3266107176698	998.2218881668445	1551.346993472396	215.7798297291174	961.1713589718986	2083.103004772192	1001.935440059874	1074.693286610105	1672.072260008122	53.54761760237932	935.0095266778894	1623.683536728425	60.29699134700624	1037.939362799254	1969.940620479923	1007.848752730466	983.0755753060336	1657.594938279044	265.3442793450072	1035.252251708897	1629.585860682141	291.7345065169177	1000.877246836417	1701.079948466995	336.0792182444386	1052.332654070791	1668.743051588981	360.791451182839	1017.613194999646	1898.952212650404	599.7036796881509	1085.45364532201	1843.725778065711	621.2691049323467	1045.187475979021	1926.97389780448	705.4212074455297	1102.061342133994	1873.975395169033	725.323652846291	1063.669131068428	
